<?xml version="1.0" encoding="utf-8"?>
<!-- Generator: Adobe Illustrator 22.1.0, SVG Export Plug-In . SVG Version: 6.00 Build 0)  -->
<svg version="1.1" id="Camada_1" xmlns:svg="http://www.w3.org/2000/svg"
	 xmlns="http://www.w3.org/2000/svg" xmlns:xlink="http://www.w3.org/1999/xlink" x="0px" y="0px" viewBox="0 0 64.8 136.8"
	 style="enable-background:new 0 0 64.8 136.8;" xml:space="preserve">
<style type="text/css">
	.st0{fill:#075C7A;}
	.st1{fill:none;stroke:#B9B9B9;stroke-width:1.8;stroke-linecap:round;}
	.st2{fill:#F1D083;}
	.st3{fill:none;stroke:#ECC98A;stroke-width:1.44;}
	.st4{fill:#FFFFFF;fill-opacity:0.1569;}
	.st5{fill:none;stroke:#EBCE00;stroke-width:1.44;stroke-linecap:round;}
	.st6{fill:none;stroke:#CE3131;stroke-width:1.44;stroke-linecap:round;}
	.st7{fill:none;}
	.st8{fill:#D09343;}
	.st9{fill:#32B1DC;}
	.st10{fill:#FFFFFF;fill-opacity:0.3533;}
	.st11{fill:#D7D7D7;stroke:#000000;stroke-width:0.2268;}
	.st12{fill:none;stroke:#000000;stroke-width:1.5462;stroke-opacity:0.2824;}
	.st13{fill:none;stroke:#FFFFFF;stroke-width:1.5591;stroke-linecap:square;stroke-linejoin:bevel;stroke-opacity:0.587;}
	.st14{fill:none;stroke:#575757;stroke-width:1.7359;stroke-linecap:round;}
	.st15{fill:#FFFFFF;}
	.st16{font-family:'ArialMT';}
	.st17{font-size:6px;}
	.st18{opacity:0.2262;fill:none;enable-background:new    ;}
	.st19{fill:#FFFFFF;fill-opacity:5.490196e-02;}
</style>
<g id="breadboard">
	<g>
		<path id="rect14880" class="st0" d="M54,32.6H10.8c-4,0-7.2,5.6-7.2,12.6v75.4c0,7,3.2,12.6,7.2,12.6H54c4,0,7.2-5.6,7.2-12.6
			V45.2C61.2,38.2,58,32.6,54,32.6z M10.8,52.7c-2.6,0-4.7-3.4-4.7-7.5c0-4.2,2.1-7.6,4.7-7.6s4.7,3.4,4.7,7.6
			C15.5,49.3,13.4,52.7,10.8,52.7z M54,52.7c-2,0-3.6-2.3-4.1-5.4c-0.1-0.7-0.2-1.4-0.2-2.2s0.1-1.5,0.2-2.2
			c0.5-3.1,2.2-5.4,4.1-5.4s3.6,2.3,4.1,5.4c0.1,0.7,0.2,1.4,0.2,2.2s-0.1,1.5-0.2,2.2C57.6,50.5,56,52.7,54,52.7z"/>
		<path class="st0" d="M58.1,47.4c-0.5,3.1-2.2,5.4-4.1,5.4s-3.6-2.3-4.1-5.4c0.8,1.5,2.4,2.5,4.1,2.5
			C55.8,49.9,57.3,48.9,58.1,47.4z"/>
		<path class="st0" d="M58.1,43c-0.8-1.5-2.4-2.5-4.1-2.5c-1.3,0-2.5,0.5-3.3,1.4c-0.3,0.3-0.6,0.7-0.8,1.1c0.5-3.1,2.2-5.4,4.1-5.4
			S57.6,39.9,58.1,43z"/>
		<path class="st0" d="M15.5,45.2c0-2.6-2.1-4.7-4.7-4.7c-1.3,0-2.5,0.5-3.3,1.4c-0.8,0.8-1.4,2-1.4,3.3c0-4.2,2.1-7.6,4.7-7.6
			S15.5,41,15.5,45.2z"/>
		<path class="st0" d="M15.5,45.2c0,4.2-2.1,7.5-4.7,7.5s-4.7-3.4-4.7-7.5c0,2.6,2.1,4.7,4.7,4.7C13.4,49.9,15.5,47.8,15.5,45.2z"/>
		<g transform="matrix(1, 0, 0, 1, 3.6, -3.6)">
			<path id="path14122" class="st1" d="M14.6,132.6c0,1-0.8,1.8-1.8,1.8s-1.8-0.8-1.8-1.8s0.8-1.8,1.8-1.8S14.6,131.6,14.6,132.6z"
				/>
		</g>
		<g transform="matrix(1, 0, 0, 1, 10.8, -3.6)">
			<path id="path14124" class="st1" d="M15.6,132.6c0,1-0.8,1.8-1.8,1.8s-1.8-0.8-1.8-1.8s0.8-1.8,1.8-1.8S15.6,131.6,15.6,132.6z"
				/>
		</g>
		<g transform="matrix(1, 0, 0, 1, 25.2, -3.6)">
			<path id="path14128" class="st1" d="M9.6,132.6c0,1-0.8,1.8-1.8,1.8S6,133.6,6,132.6s0.8-1.8,1.8-1.8S9.6,131.6,9.6,132.6z"/>
		</g>
		<g transform="matrix(1, 0, 0, 1, 32.4, -3.6)">
			<path id="path14139" class="st1" d="M10.6,132.6c0,1-0.8,1.8-1.8,1.8S7,133.6,7,132.6s0.8-1.8,1.8-1.8S10.6,131.6,10.6,132.6z"/>
		</g>
		<g transform="matrix(1, 0, 0, 1, 39.6, -3.6)">
			<path id="path14141" class="st1" d="M10.6,132.6c0,1-0.8,1.8-1.8,1.8c-1,0-1.8-0.8-1.8-1.8s0.8-1.8,1.8-1.8
				S10.6,131.6,10.6,132.6z"/>
		</g>
		<rect id="connector1pin" x="15.3" y="127.9" class="st2" width="2.2" height="2.2"/>
		<rect id="connector2pin" x="23.5" y="127.9" class="st2" width="2.2" height="2.2"/>
		<rect id="connector4pin" x="31.9" y="127.9" class="st2" width="2.2" height="2.2"/>
		<rect id="connector5pin" x="40.1" y="127.9" class="st2" width="2.2" height="2.2"/>
		<rect id="connector6pin" x="47.3" y="127.9" class="st2" width="2.2" height="2.2"/>
		<path class="st3" d="M15.5,45.2c0,2.6-2.1,4.7-4.7,4.7c-2.6,0-4.7-2.1-4.7-4.7c0-1.3,0.5-2.5,1.4-3.3c0.9-0.8,2-1.4,3.3-1.4
			C13.4,40.5,15.5,42.6,15.5,45.2z"/>
		<g transform="matrix(1, 0, 0, 1, 43.2, 0)">
			<path class="st3" d="M15.5,45.2c0,0.8-0.2,1.5-0.5,2.2c-0.8,1.5-2.3,2.5-4.1,2.5c-1.8,0-3.3-1-4.1-2.5c-0.3-0.6-0.5-1.4-0.5-2.2
				c0-0.8,0.2-1.5,0.5-2.2c0.2-0.4,0.5-0.8,0.8-1.1c0.8-0.8,2-1.4,3.3-1.4c1.8,0,3.3,1,4.1,2.5C15.3,43.6,15.5,44.4,15.5,45.2z"/>
		</g>
		<rect id="rect16470" x="6.3" y="97.6" class="st4" width="9" height="5"/>
		<rect id="rect16499" x="47" y="103.3" class="st4" width="9" height="5"/>
		<rect id="rect16501" x="47" y="90.4" class="st4" width="9" height="4.3"/>
		<rect id="rect16503" x="47" y="77.6" class="st4" width="9" height="4.3"/>
		<rect id="rect16505" x="47" y="63.4" class="st4" width="9" height="5"/>
		<rect id="rect16507" x="7.2" y="84.2" class="st4" width="9" height="5"/>
		<rect id="rect16509" x="7.2" y="69.4" class="st4" width="9" height="5"/>
		<path id="path17331" class="st5" d="M36.1,41.6l-5-17.3"/>
		<path id="path17333" class="st6" d="M28.7,41.6L33,24.4"/>
		<path id="rect18832" class="st7" d="M32.4,5.8L32.4,5.8c0.8,0,1.4,0.6,1.4,1.4v2.2c0,0.8-0.6,1.4-1.4,1.4h0
			c-0.8,0-1.4-0.6-1.4-1.4V7.2C31,6.4,31.6,5.8,32.4,5.8z"/>
		<rect id="rect17335" x="29.9" y="2.6" class="st8" width="4.3" height="28.6"/>
		<g transform="matrix(0.5, 0, 0, 0.5, 17.3594, -392.224)">
			<g id="g16557">
				<rect id="rect2989" x="9.9" y="855" class="st9" width="39.7" height="39.7"/>
				<rect id="rect3761" x="9.9" y="855" class="st10" width="39.7" height="5.7"/>
				<g transform="matrix(1.25, 0, 0, 1.25, -4.96063, -201.26)">
					<path id="path3763" class="st11" d="M25.5,860.9c0,3.1-2.5,5.7-5.7,5.7s-5.7-2.5-5.7-5.7s2.5-5.7,5.7-5.7
						S25.5,857.7,25.5,860.9z"/>
				</g>
				<g transform="matrix(1.25, 0, 0, 1.25, 14.8819, -201.26)">
					<path id="path3763-8" class="st11" d="M25.5,860.9c0,3.1-2.5,5.7-5.7,5.7s-5.7-2.5-5.7-5.7s2.5-5.7,5.7-5.7
						S25.5,857.7,25.5,860.9z"/>
				</g>
				<g transform="matrix(0.916667, 0, 0, 0.916667, 1.65354, 67.6771)">
					<path id="path3787" class="st12" d="M15,887.5c-3.9-2.7-4.8-8-2.1-11.8c2.7-3.9,8-4.8,11.8-2.1c0.4,0.3,0.8,0.6,1.2,1"/>
				</g>
				<g transform="matrix(0.916667, 0, 0, 0.916667, 21.4949, 67.6771)">
					<path id="path3834" class="st12" d="M15.2,887.6c-3.9-2.6-5-7.8-2.4-11.8c2.6-3.9,7.8-5,11.8-2.4c0.8,0.5,1.5,1.2,2.1,1.9"/>
				</g>
				<g transform="matrix(0.909091, 0, 0, 0.909091, 1.80387, 73.8296)">
					<path id="path3838" class="st13" d="M15.3,886.5c-3-2.5-3.4-7-0.8-10c2.5-3,6.9-3.4,9.9-0.9"/>
				</g>
				<g transform="matrix(0.909091, 0, 0, 0.909091, 21.6458, 73.8296)">
					<path id="path3840" class="st13" d="M15.3,886.5c-3-2.5-3.4-7-0.8-10c2.5-3,6.9-3.4,9.9-0.9"/>
				</g>
				<g transform="matrix(0.93358, 0.358368, -0.358368, 0.93358, 292.358, 46.8301)">
					<g id="g3870">
						<path id="path3844" class="st14" d="M42.3,866.4v8.5"/>
						<path id="path3848" class="st14" d="M38.1,870.6h8.5"/>
					</g>
				</g>
				<g transform="matrix(0.981627, -0.190809, 0.190809, 0.981627, -134.759, 18.7072)">
					<g id="g3874">
						<path id="path3876" class="st14" d="M7.9,869.4v8.5"/>
						<path id="path3878" class="st14" d="M3.6,873.7h8.5"/>
					</g>
				</g>
			</g>
		</g>
		<g id="text16466" xmlns:xml="http://www.w3.org/XML/1998/namespace">
			<text id="tspan16468" transform="matrix(1 0 0 1 17.05 105.9502)" class="st15 st16 st17">MAX6675</text>
		</g>
		<g transform="matrix(0,-1,1,0,0,0)">
			<g id="text16302" xmlns:xml="http://www.w3.org/XML/1998/namespace">
				<text id="tspan16304" transform="matrix(1 0 0 1 -123.1198 18.48)" class="st15 st16 st17">GND</text>
			</g>
		</g>
		<g transform="matrix(0,-1,1,0,0,0)">
			<g id="text16446" xmlns:xml="http://www.w3.org/XML/1998/namespace">
				<text id="tspan16448" transform="matrix(1 0 0 1 -123.1198 26.6508)" class="st15 st16 st17">VCC</text>
			</g>
		</g>
		<g transform="matrix(0,-1,1,0,0,0)">
			<g id="text16454" xmlns:xml="http://www.w3.org/XML/1998/namespace">
				<text id="tspan16456" transform="matrix(1 0 0 1 -123.1198 35.0508)" class="st15 st16 st17">SO</text>
			</g>
		</g>
		<g transform="matrix(0,-1,1,0,0,0)">
			<g id="text16458" xmlns:xml="http://www.w3.org/XML/1998/namespace">
				<text id="tspan16460" transform="matrix(1 0 0 1 -123.1198 43.2215)" class="st15 st16 st17">CS</text>
			</g>
		</g>
		<g transform="matrix(0,-1,1,0,0,0)">
			<g id="text16462" xmlns:xml="http://www.w3.org/XML/1998/namespace">
				<text id="tspan16464" transform="matrix(1 0 0 1 -123.1198 50.2356)" class="st15 st16 st17">SCK</text>
			</g>
		</g>
		<g transform="matrix(0,-1,1,0,0,0)">
			<g id="text16714" xmlns:xml="http://www.w3.org/XML/1998/namespace">
				<text id="tspan16716" transform="matrix(1 0 0 1 -51.4596 21.636)" class="st15 st16 st17">T +</text>
			</g>
		</g>
		<g transform="matrix(0,-1,1,0,0,0)">
			<g id="text16722" xmlns:xml="http://www.w3.org/XML/1998/namespace">
				<text id="tspan16724" transform="matrix(1 0 0 1 -51.5748 47.6746)" class="st15 st16 st17">T -</text>
			</g>
		</g>
		<rect id="rect18801" x="30.2" y="7.2" class="st18" width="4.3" height="54"/>
		<g id="g17304">
			<rect id="rect14178" x="26.8" y="77.6" class="st7" width="10.8" height="14.4"/>
			<g id="g16276">
				<rect id="rect14224" x="37.6" y="82.3" class="st7" width="2.9" height="1.4"/>
				<rect id="rect14226" x="37.6" y="79.1" class="st7" width="2.9" height="1.4"/>
				<rect id="rect14228" x="37.6" y="85.6" class="st7" width="2.9" height="1.4"/>
				<rect id="rect14230" x="37.6" y="88.8" class="st7" width="2.9" height="1.4"/>
			</g>
			<g transform="scale(-1,-1)">
				<rect id="rect16284" x="-26.8" y="-87" class="st7" width="2.9" height="1.4"/>
			</g>
			<g transform="scale(-1,-1)">
				<rect id="rect16286" x="-26.8" y="-90.2" class="st7" width="2.9" height="1.4"/>
			</g>
			<g transform="scale(-1,-1)">
				<rect id="rect16288" x="-26.8" y="-83.8" class="st7" width="2.9" height="1.4"/>
			</g>
			<g transform="scale(-1,-1)">
				<rect id="rect16290" x="-26.8" y="-80.5" class="st7" width="2.9" height="1.4"/>
			</g>
			<rect id="rect16300" x="26.8" y="77.6" class="st19" width="1.1" height="14.4"/>
		</g>
	</g>
</g>
</svg>
